<?xml version="1.0" standalone="no"?>
<!DOCTYPE svg PUBLIC "-//W3C//DTD SVG 20010904//EN"
 "http://www.w3.org/TR/2001/REC-SVG-20010904/DTD/svg10.dtd">
<svg version="1.0" xmlns="http://www.w3.org/2000/svg"
 width="500.000000pt" height="500.000000pt" viewBox="0 0 500.000000 500.000000"
 preserveAspectRatio="xMidYMid meet">

<g transform="translate(0.000000,500.000000) scale(0.100000,-0.100000)"
fill="#000000" stroke="none">
<path d="M2855 4483 c-3 -10 -9 -64 -12 -121 l-6 -103 -57 -29 c-81 -41 -120
-76 -120 -109 0 -42 24 -66 97 -96 37 -16 76 -37 85 -47 9 -11 25 -55 35 -99
14 -61 22 -79 35 -79 21 0 32 -16 17 -25 -6 -5 -2 -13 12 -23 25 -18 29 -14
118 108 l47 65 107 -3 107 -4 10 27 c20 54 2 121 -51 187 l-22 27 20 43 c12
24 28 65 37 92 15 44 15 51 1 72 -20 30 -59 31 -149 3 l-67 -20 -62 57 c-34
31 -75 65 -92 75 -38 24 -81 25 -90 2z m180 -185 l30 -27 80 24 c44 14 86 24
94 23 9 -2 1 -25 -28 -82 -23 -44 -41 -84 -41 -90 0 -6 23 -40 50 -75 28 -35
50 -67 50 -73 0 -8 -58 -4 -146 12 l-41 7 -61 -75 c-61 -73 -62 -74 -72 -48
-5 14 -15 55 -21 90 l-12 64 -85 33 c-46 19 -84 39 -83 44 0 6 37 30 81 53
l80 44 0 82 c0 46 3 86 7 90 4 3 25 -11 47 -31 23 -21 55 -50 71 -65z"/>
<path d="M2038 4217 c-155 -53 -266 -170 -312 -329 l-17 -56 -67 34 c-37 18
-94 40 -127 49 -299 77 -586 -153 -587 -470 0 -85 26 -184 63 -236 10 -15 19
-29 19 -32 0 -7 -97 -47 -115 -47 -9 0 -42 21 -73 46 -66 54 -114 79 -135 71
-21 -8 -37 -84 -37 -177 l0 -81 -75 -71 c-63 -60 -75 -76 -75 -103 0 -34 11
-49 45 -58 11 -3 52 -15 90 -26 l71 -21 32 -79 c36 -87 50 -103 88 -103 32 0
48 15 99 100 l42 67 94 8 c52 4 105 9 118 10 21 2 27 -8 58 -93 19 -52 50
-144 69 -205 19 -60 39 -118 44 -127 6 -10 10 -25 10 -34 0 -9 6 -22 14 -28
13 -10 106 -244 106 -265 0 -5 -30 -20 -67 -34 -38 -14 -113 -44 -168 -67
-204 -84 -208 -86 -186 -146 10 -29 10 -37 -3 -49 -8 -8 -21 -15 -30 -15 -25
0 -29 -20 -4 -21 60 -2 94 -26 85 -61 -3 -11 0 -15 9 -11 8 3 14 -1 14 -10 0
-9 -29 -25 -77 -42 -43 -15 -83 -32 -90 -37 -7 -6 -16 -7 -22 -4 -5 3 -11 0
-13 -7 -10 -26 4 -37 47 -37 49 0 63 -13 43 -37 -15 -19 -22 -21 85 22 37 15
71 25 74 21 11 -10 0 -16 -148 -75 -137 -56 -177 -81 -128 -81 12 0 51 10 86
21 52 18 68 20 89 10 19 -8 24 -16 19 -31 -8 -24 -5 -24 43 -4 78 33 82 34 82
20 0 -8 -43 -31 -102 -55 -145 -58 -140 -53 -95 -99 20 -21 34 -41 31 -45 -16
-16 21 -5 107 33 97 42 109 45 109 31 0 -5 -55 -30 -122 -57 -68 -26 -125 -50
-128 -51 -2 -2 0 -12 6 -21 8 -12 22 -16 52 -13 42 3 97 -22 70 -32 -7 -2 -10
-7 -7 -11 3 -3 32 5 65 18 85 34 104 39 104 27 0 -6 -6 -11 -13 -11 -7 0 -48
-14 -91 -30 -44 -17 -84 -29 -90 -27 -19 7 -86 -35 -86 -54 0 -29 15 -30 81
-2 95 39 184 61 203 51 24 -14 19 -47 -9 -60 -16 -7 -21 -14 -14 -18 6 -4 -7
-13 -32 -21 -42 -14 -70 -41 -56 -56 5 -4 36 3 70 15 83 29 113 29 130 -3 16
-31 102 -103 132 -111 14 -3 73 15 161 49 267 106 330 129 478 178 83 27 161
49 174 49 13 0 56 11 95 24 40 13 99 31 132 40 33 10 75 24 93 32 29 14 77 32
229 88 18 7 36 15 39 19 4 4 13 7 20 7 12 0 159 60 269 110 45 20 352 143 461
184 64 24 72 30 78 58 9 46 7 86 -5 106 -15 23 0 92 21 102 8 4 53 22 100 41
150 58 294 121 321 140 32 22 46 79 29 118 -6 14 -24 34 -41 43 -18 11 -27 22
-23 29 3 6 40 26 80 45 67 30 86 49 67 67 -3 4 -11 3 -17 -2 -22 -18 -480
-201 -503 -201 -2 0 -3 4 -3 8 0 5 44 26 98 47 339 132 393 155 386 166 -3 5
3 25 12 45 23 49 10 89 -29 88 -16 -1 -27 4 -27 12 0 7 -8 17 -17 23 -17 9
-17 10 0 29 10 10 35 27 57 37 36 16 55 45 30 45 -5 0 -74 -27 -152 -61 -78
-33 -163 -69 -188 -78 -25 -10 -69 -28 -97 -39 -42 -17 -53 -19 -53 -8 0 8 13
18 28 24 101 35 370 157 360 163 -11 7 -14 22 -17 80 -1 8 -11 26 -23 39 -20
21 -20 25 -7 49 11 19 34 33 88 51 41 14 76 30 78 36 6 18 -26 83 -47 94 -15
8 -33 7 -72 -5 -65 -19 -65 -19 -71 4 -3 15 -11 18 -28 14 -18 -3 -21 -2 -10
5 12 9 12 13 2 26 -8 9 -22 16 -32 16 -23 0 -157 -48 -186 -67 -26 -17 -43
-10 -43 19 0 12 -27 100 -59 197 -33 97 -71 216 -86 265 -15 49 -48 139 -74
200 -26 61 -72 176 -101 256 -29 80 -58 151 -64 157 -15 17 -66 2 -136 -39
-36 -22 -82 -66 -138 -133 -46 -55 -126 -149 -179 -208 -100 -114 -100 -114
-290 -197 l-42 -19 -17 51 c-9 27 -27 59 -39 70 l-24 20 30 58 c16 32 29 63
29 69 0 6 9 28 20 49 12 21 16 38 10 40 -5 2 -10 34 -10 70 0 127 -43 232
-128 317 -131 130 -328 178 -494 122z m307 -105 c118 -56 194 -151 208 -264 5
-38 4 -48 -8 -48 -8 0 -19 15 -24 33 -9 30 -9 28 -10 -23 -1 -60 -27 -115 -58
-123 -39 -11 -120 -21 -151 -18 -17 1 -62 -7 -98 -19 -59 -20 -68 -26 -84 -62
-21 -47 -17 -68 17 -100 44 -41 170 -25 213 27 8 10 17 38 20 64 6 42 7 44 14
19 28 -96 -96 -180 -214 -145 -36 10 -49 21 -70 57 -26 44 -27 45 -89 51 -41
4 -68 12 -79 24 -16 17 -16 17 3 10 11 -5 37 -10 57 -13 30 -3 42 1 62 22 32
31 33 67 3 155 -19 55 -27 67 -62 85 -22 11 -43 25 -46 30 -4 5 -12 5 -19 1
-9 -6 -9 -9 1 -16 11 -7 10 -9 -3 -9 -10 0 -24 -12 -32 -27 -25 -51 -28 -90
-11 -150 9 -32 17 -60 17 -63 1 -3 12 -22 25 -44 43 -68 86 -97 208 -142 79
-29 51 -43 -42 -20 -119 29 -201 92 -248 191 -74 157 -50 316 65 435 49 50
123 93 187 110 69 17 177 5 248 -28z m-847 -287 c109 -33 189 -97 233 -190 29
-60 37 -105 20 -105 -5 0 -13 10 -18 23 -5 16 -9 2 -13 -51 -8 -93 -33 -123
-104 -124 -25 -1 -46 -4 -46 -8 0 -12 26 -30 33 -24 11 11 19 -45 12 -83 -14
-78 -77 -124 -171 -125 -53 -1 -104 20 -104 43 0 5 10 3 22 -5 28 -20 117 -21
163 -2 64 27 93 110 56 157 -29 38 -80 45 -128 19 -21 -11 -45 -20 -55 -20
-19 0 -58 -45 -58 -67 0 -12 -2 -12 -15 1 -14 14 -18 13 -35 -4 -28 -28 -118
-28 -148 0 -12 12 -22 26 -22 32 0 6 7 4 18 -5 32 -29 72 -39 109 -26 61 20
68 64 26 171 -29 74 -63 104 -108 96 -13 -3 -22 0 -22 9 0 7 3 13 7 13 9 0 10
27 3 64 -5 28 -6 29 -19 11 -8 -10 -12 -28 -9 -39 3 -12 2 -15 -1 -8 -3 6 -10
10 -15 6 -14 -8 -11 -24 6 -24 8 0 15 -7 15 -15 0 -8 -5 -15 -11 -15 -6 0 -9
-7 -6 -14 3 -8 -1 -29 -10 -47 -17 -34 -13 -123 7 -143 14 -14 13 -29 -1 -20
-19 12 32 -74 60 -100 37 -34 138 -83 207 -100 l59 -14 -67 -1 c-177 -2 -318
120 -348 303 -11 66 5 168 36 228 83 164 275 252 442 203z m1833 -126 c16 -46
40 -115 53 -154 13 -38 37 -105 55 -148 38 -94 38 -101 6 -53 -14 20 -25 42
-25 48 0 6 -3 8 -7 5 -7 -8 -44 54 -100 166 -18 37 -37 67 -41 66 -4 0 -55
-60 -113 -133 -102 -127 -106 -134 -93 -158 7 -13 36 -96 64 -184 74 -232 78
-242 103 -247 12 -2 4 -5 -18 -6 l-40 -1 -94 243 c-52 133 -97 247 -101 252
-4 6 37 62 92 125 54 63 127 149 161 191 34 42 63 76 65 74 2 -2 17 -41 33
-86z m-961 -54 c7 -8 8 -15 2 -15 -5 0 -15 7 -22 15 -7 8 -8 15 -2 15 5 0 15
-7 22 -15z m1144 -156 c38 -41 52 -69 66 -127 8 -31 7 -33 -17 -30 -23 3 -31
16 -64 98 -44 109 -42 100 -30 100 5 0 25 -18 45 -41z m-967 -141 c44 -110 94
-269 87 -280 -4 -7 -3 -8 4 -4 17 10 15 -6 -4 -33 -18 -26 -9 -42 -106 191
-23 54 -45 95 -49 92 -5 -3 -2 -12 6 -20 19 -19 20 -54 1 -54 -8 0 -18 -10
-22 -22 -3 -12 -15 -35 -24 -51 l-18 -30 2 52 c2 32 -1 51 -8 52 -6 0 -19 2
-28 4 -11 2 -20 -8 -28 -29 -7 -17 -20 -51 -30 -76 -11 -26 -15 -49 -10 -55 6
-7 2 -11 -11 -11 -10 0 -19 1 -19 2 0 7 54 142 66 165 14 27 13 29 -6 29 -12
0 -31 -10 -43 -23 -13 -12 -32 -21 -42 -20 -16 1 -17 1 -2 -3 23 -7 22 -16 -9
-85 -20 -43 -30 -56 -43 -52 -12 4 -13 3 -3 -5 11 -8 6 -28 -28 -104 -39 -87
-44 -94 -71 -94 -27 0 -28 1 -24 45 4 52 87 266 103 266 6 0 13 3 16 6 8 8
-20 5 -56 -5 -18 -5 -33 -21 -46 -49 -24 -52 -93 -206 -120 -269 -12 -27 -23
-48 -26 -48 -3 0 -3 7 0 15 5 11 2 13 -10 9 -28 -11 -17 6 12 18 24 10 25 12
7 16 -31 6 -34 15 -12 37 11 11 17 14 13 8 -5 -9 -2 -11 9 -7 14 6 14 8 -2 20
-10 8 -13 13 -6 14 7 0 10 7 6 16 -5 13 -7 13 -14 2 -7 -10 -9 -10 -9 2 0 8
-9 -3 -21 -24 -11 -21 -18 -45 -15 -53 3 -8 2 -12 -3 -9 -5 3 -14 -8 -21 -24
-7 -17 -14 -29 -16 -27 -2 2 23 66 56 141 34 76 59 140 56 143 -7 8 -67 -27
-73 -42 -3 -8 -8 -13 -12 -11 -3 2 -15 -1 -26 -5 -18 -8 -18 -9 3 -5 16 3 22
0 19 -7 -34 -81 -92 -203 -99 -208 -5 -3 -9 -9 -8 -13 1 -4 -1 -12 -3 -19 -2
-6 -9 4 -14 23 -5 19 -6 37 -2 40 10 7 6 59 -3 53 -5 -2 -8 1 -8 7 0 6 -5 8
-11 4 -8 -4 -9 0 -4 15 9 28 -3 27 -94 -9 -70 -28 -99 -31 -85 -9 3 5 9 7 14
4 4 -3 10 2 13 9 5 12 1 13 -23 5 -21 -8 -27 -15 -23 -27 6 -14 4 -15 -9 -4
-13 10 -23 9 -59 -7 -24 -11 -41 -20 -36 -22 21 -5 28 -7 40 -8 20 -2 -13 -20
-61 -33 -45 -11 -45 -12 -27 -63 6 -18 6 -19 -5 -2 -9 14 -15 16 -26 6 -10 -8
-11 -15 -4 -24 6 -7 10 -17 8 -21 -1 -5 3 -19 10 -31 7 -13 9 -23 5 -23 -4 0
-2 -4 4 -8 11 -7 19 -32 22 -65 1 -5 6 -5 13 -1 7 4 8 3 4 -5 -8 -12 23 -113
35 -119 4 -2 5 -11 2 -22 -3 -10 4 -36 15 -57 20 -36 43 -105 57 -167 3 -15
26 -71 52 -123 25 -52 44 -96 42 -97 -2 -2 -17 -10 -34 -19 l-30 -15 -26 71
c-15 40 -65 178 -112 307 -93 258 -156 425 -180 482 l-16 37 157 61 c86 34
207 81 267 104 96 37 290 113 745 290 63 25 118 45 121 45 3 1 15 -23 26 -51z
m373 -34 c16 -40 13 -64 -6 -57 -21 8 -20 1 30 -166 20 -68 35 -131 34 -140
-3 -16 -148 332 -148 356 0 11 41 31 68 32 7 1 17 -11 22 -25z m-127 -136 c31
-90 33 -103 20 -116 -9 -10 -13 -25 -9 -41 11 -46 19 -106 13 -101 -5 5 -111
271 -121 307 -6 17 -1 25 21 37 15 8 31 15 34 16 4 0 22 -46 42 -102z m-304
-57 c-12 -29 -23 -50 -25 -48 -3 2 5 27 17 56 12 28 24 50 26 47 2 -2 -6 -27
-18 -55z m-1682 -37 l62 -53 85 35 c47 19 90 34 95 34 5 0 -4 -41 -21 -91
l-30 -91 61 -62 c33 -34 61 -65 61 -69 0 -4 -24 -7 -52 -8 -29 0 -73 -4 -97
-7 -42 -7 -47 -11 -91 -82 -26 -41 -51 -75 -55 -75 -5 0 -20 36 -35 80 l-26
80 -95 24 c-52 13 -96 26 -98 27 -5 4 26 31 101 86 l58 42 -7 100 c-7 114 -13
111 84 30z m1591 -4 c-19 -46 -46 -61 -35 -19 3 11 1 19 -5 19 -5 0 -6 5 -3
11 4 6 13 8 19 6 7 -3 18 4 24 14 21 34 21 20 0 -31z m13 -155 c15 -8 48 -15
74 -15 25 0 45 -2 45 -5 0 -2 -21 -24 -46 -47 l-46 -43 5 -65 5 -65 -22 29
c-54 74 -58 77 -125 83 l-63 6 47 40 47 41 -6 65 -6 66 31 -38 c18 -21 44 -44
60 -52z m-170 28 c-12 -20 -14 -14 -5 12 4 9 9 14 11 11 3 -2 0 -13 -6 -23z
m-180 -60 c-11 -21 -20 -35 -21 -31 0 12 33 78 38 74 2 -2 -6 -21 -17 -43z
m-535 28 c-4 -5 -1 -11 6 -13 7 -3 2 -7 -10 -10 -12 -4 -20 -2 -16 3 3 5 -1 9
-8 9 -9 0 -9 3 2 10 19 12 33 13 26 1z m685 -38 c-12 -20 -14 -14 -5 12 4 9 9
14 11 11 3 -2 0 -13 -6 -23z m-493 -10 c-14 -33 -38 -71 -38 -60 0 11 39 87
45 87 3 0 -1 -12 -7 -27z m406 -18 c-4 -8 -8 -15 -10 -15 -2 0 -4 7 -4 15 0 8
4 15 10 15 5 0 7 -7 4 -15z m-507 -45 c-21 -49 -22 -50 -37 -30 -17 23 -39 21
-99 -10 l-42 -21 11 21 c7 12 35 32 63 44 29 13 63 28 77 34 46 20 49 14 27
-38z m2404 27 c-6 -8 -46 -31 -88 -52 -43 -21 -81 -43 -85 -49 -4 -6 -8 -8 -8
-4 0 3 -3 13 -6 22 -6 16 13 27 131 72 72 28 70 27 56 11z m-2083 -41 c-10 -7
-15 -15 -12 -18 2 -3 -1 -17 -7 -32 -9 -18 -15 -23 -20 -14 -4 7 0 17 9 25 9
7 12 13 5 13 -6 0 -9 9 -6 21 4 13 11 18 20 14 11 -4 13 -1 9 12 -6 15 -5 16
6 5 11 -11 10 -16 -4 -26z m147 -16 c-14 -27 -28 -50 -31 -50 -3 0 -3 4 1 9 3
5 1 12 -5 16 -5 3 -10 13 -10 21 0 8 5 12 10 9 6 -4 20 5 33 19 12 14 23 26
25 26 1 0 -9 -22 -23 -50z m2195 -6 c0 -17 -21 -29 -29 -16 -4 7 -19 6 -46 -4
-42 -15 -76 -11 -58 7 5 5 32 18 59 28 50 19 74 15 74 -15z m-820 6 c0 -5 -8
-18 -18 -28 -11 -11 -24 -49 -31 -91 -13 -70 -14 -73 -50 -87 -114 -46 -136
-60 -69 -45 31 7 71 -1 58 -12 -14 -12 -75 -37 -90 -37 -10 0 -40 32 -70 74
-60 84 -56 83 -172 44 -32 -11 -62 -17 -66 -14 -17 10 -36 96 -24 108 6 6 64
30 129 53 117 42 119 43 261 44 89 1 142 -3 142 -9z m276 -37 c-9 -60 -25
-245 -36 -413 -20 -300 -41 -585 -45 -605 -3 -14 -25 -28 -72 -47 -37 -15 -73
-29 -78 -30 -17 -5 -210 216 -471 541 -54 68 -118 147 -141 176 l-42 52 115
43 c63 23 116 41 118 39 16 -19 185 -242 233 -309 34 -47 82 -107 106 -134
l44 -50 7 154 c9 178 41 519 51 528 7 8 195 90 208 91 5 1 6 -16 3 -36z
m-1925 -47 c-16 -36 -32 -66 -35 -66 -3 0 9 32 26 70 17 39 33 68 35 66 2 -2
-9 -34 -26 -70z m174 35 c-21 -43 -29 -39 -8 4 9 19 18 33 21 31 2 -2 -4 -18
-13 -35z m2082 -18 c2 -6 -19 -19 -47 -28 -30 -10 -48 -21 -44 -27 5 -7 2 -8
-5 -3 -14 8 -91 -23 -91 -37 0 -5 -5 -6 -11 -2 -6 3 -15 0 -20 -7 -6 -11 -10
-9 -15 6 -4 10 -3 20 2 22 5 2 54 23 109 47 102 45 116 48 122 29z m-2476
-116 c-10 -9 -11 -8 -5 6 3 10 9 15 12 12 3 -3 0 -11 -7 -18z m2489 -22 c0 -8
-6 -15 -13 -15 -7 0 -66 -22 -132 -50 -66 -27 -121 -50 -122 -50 -2 0 -3 6 -3
13 0 12 226 114 258 116 6 1 12 -6 12 -14z m-700 -165 c-8 -16 -17 -19 -38
-14 -15 4 -29 8 -31 10 -6 5 41 23 62 23 15 1 16 -2 7 -19z m-510 -315 c46
-132 113 -325 151 -429 38 -104 66 -192 64 -196 -2 -4 -39 -20 -82 -35 -43
-15 -83 -31 -89 -36 -11 -9 -30 34 -117 266 -18 50 -47 135 -63 190 l-29 99
-12 -99 c-12 -102 -78 -496 -91 -549 l-8 -30 -94 90 c-126 119 -233 217 -308
282 l-61 52 19 -52 c10 -29 35 -96 55 -148 20 -52 56 -152 80 -222 l44 -127
-81 -30 c-130 -50 -120 -53 -146 36 -51 169 -221 640 -299 831 -3 6 0 12 7 12
7 0 57 18 112 40 114 46 94 51 214 -57 184 -166 307 -273 310 -270 2 2 19 84
38 183 20 98 46 229 59 289 l23 110 100 40 c97 40 99 40 110 20 7 -11 49 -128
94 -260z m1361 233 c10 -18 9 -20 -4 -15 -9 3 -107 -30 -218 -73 -111 -44
-204 -80 -206 -80 -3 0 -3 5 -1 11 3 8 391 175 415 179 1 0 7 -10 14 -22z
m-1811 -181 c0 -8 -6 -14 -12 -14 -34 -1 -98 -25 -98 -37 0 -20 -43 -29 -52
-11 -5 8 -18 12 -34 9 -13 -2 -33 0 -42 5 -19 11 -19 11 53 16 28 1 73 12 100
23 60 24 85 27 85 9z m-170 -73 c0 -2 -7 -4 -15 -4 -8 0 -15 4 -15 10 0 5 7 7
15 4 8 -4 15 -8 15 -10z m150 -54 c0 -16 -75 -49 -90 -40 -9 6 0 14 31 28 52
24 59 25 59 12z m1768 -17 c2 -8 -5 -13 -15 -13 -11 0 -99 -31 -196 -69 -97
-38 -177 -65 -177 -61 0 5 37 23 82 42 45 18 125 52 177 75 98 43 121 47 129
26z m-2425 -135 c2 -9 -29 -25 -87 -46 -127 -47 -145 -52 -151 -43 -5 9 189
98 217 100 9 1 18 -5 21 -11z m-260 -348 c47 -135 99 -282 117 -328 38 -98 17
-97 216 -18 87 35 137 50 139 42 2 -6 18 -51 35 -100 17 -49 29 -90 28 -91 -2
-1 -70 -28 -153 -60 -82 -32 -195 -75 -250 -97 -90 -34 -101 -37 -112 -22 -12
16 -80 197 -228 609 -48 132 -91 247 -96 256 -7 14 6 22 79 48 48 17 94 36
102 41 21 13 24 4 123 -280z m295 228 c-6 -18 -221 -99 -232 -88 -6 6 1 13 20
20 16 6 65 26 109 44 87 37 109 42 103 24z m1558 -100 c4 -7 4 -10 -1 -6 -4 4
-35 -4 -69 -16 -33 -13 -70 -27 -81 -32 -12 -4 -17 -3 -12 2 8 8 132 61 149
63 4 1 10 -5 14 -11z m-1506 -28 c0 -4 -12 -11 -27 -15 -16 -3 -68 -22 -116
-42 -49 -19 -91 -32 -94 -29 -9 9 -5 11 112 59 103 43 125 47 125 27z m40
-119 c0 -9 -200 -91 -222 -91 -23 0 7 16 105 56 115 47 117 48 117 35z m35
-130 c-12 -11 -193 -81 -209 -81 -12 1 75 39 159 71 58 21 62 22 50 10z"/>
<path d="M2063 4053 c-65 -42 -79 -90 -42 -149 25 -42 59 -51 107 -31 20 8 51
20 69 27 32 12 63 59 63 95 0 10 -16 33 -36 51 -46 44 -101 47 -161 7z"/>
<path d="M2297 4029 c40 -41 68 -45 70 -10 1 14 -10 24 -38 35 -66 27 -74 20
-32 -25z"/>
<path d="M2403 4004 c15 -17 24 -33 20 -37 -3 -4 0 -7 7 -7 7 0 11 -2 8 -5 -3
-3 -18 -1 -34 5 -40 16 -71 5 -94 -33 -25 -41 -25 -82 1 -152 33 -89 94 -112
150 -56 26 26 29 36 29 90 0 33 -4 71 -10 86 -7 19 -7 24 1 19 8 -5 8 -1 0 12
-15 26 -31 44 -71 79 l-35 30 28 -31z"/>
<path d="M2138 3844 c-15 -8 -32 -23 -38 -34 -32 -61 16 -140 85 -140 51 0 95
44 95 95 0 27 -8 44 -29 66 -33 33 -70 37 -113 13z m63 -34 c10 -6 19 -15 19
-20 0 -13 -61 -50 -72 -44 -15 9 -8 53 10 63 21 13 20 13 43 1z"/>
<path d="M1297 3756 c-47 -17 -72 -39 -87 -77 -16 -37 -7 -69 27 -103 34 -35
51 -33 181 15 32 12 58 72 46 106 -20 57 -98 85 -167 59z"/>
<path d="M1504 3745 c1 -8 7 -20 14 -27 8 -8 9 -5 5 11 -6 25 -22 38 -19 16z"/>
<path d="M1536 3700 c4 -37 1 -56 -12 -76 -25 -37 -22 -108 6 -169 13 -27 23
-53 22 -56 -3 -17 98 -12 119 7 46 41 47 161 2 215 -14 16 -21 29 -16 29 14 0
-86 87 -107 93 -18 5 -19 1 -14 -43z m89 -35 c23 -12 24 -13 5 -8 -14 4 -37 7
-52 7 -15 -1 -25 3 -22 7 8 13 35 10 69 -6z"/>
<path d="M1331 3524 c-43 -36 -44 -93 -2 -135 25 -24 38 -29 79 -29 60 0 73
13 80 78 4 41 0 52 -23 80 -35 42 -89 44 -134 6z m97 -34 c2 -15 -45 -50 -67
-50 -15 0 -14 43 1 58 17 17 62 11 66 -8z"/>
<path d="M2390 3270 c-8 -5 -12 -11 -10 -14 3 -2 14 2 24 10 22 15 10 19 -14
4z"/>
<path d="M2065 3150 c-19 -8 -19 -9 3 -9 12 -1 22 4 22 9 0 6 -1 10 -2 9 -2 0
-12 -4 -23 -9z"/>
<path d="M2020 3130 c-8 -5 -12 -12 -9 -15 4 -3 12 1 19 10 14 17 11 19 -10 5z"/>
<path d="M1780 3040 c-34 -14 -41 -20 -28 -25 13 -5 16 -14 11 -36 -3 -17 -1
-29 5 -29 6 0 9 10 7 22 -3 16 -2 19 6 11 18 -18 39 -3 39 28 0 19 5 29 15 29
8 0 15 5 15 10 0 14 -18 12 -70 -10z"/>
<path d="M2120 3017 c-8 -18 -15 -34 -15 -37 0 -3 -3 -9 -6 -15 -4 -5 -3 -19
1 -30 6 -16 8 -13 15 15 5 19 9 40 10 45 1 6 5 18 10 28 4 10 6 20 3 22 -2 2
-10 -10 -18 -28z"/>
<path d="M1638 2983 c7 -3 16 -2 19 1 4 3 -2 6 -13 5 -11 0 -14 -3 -6 -6z"/>
<path d="M2120 2918 c-10 -21 -10 -21 3 -6 8 10 18 14 22 10 5 -4 5 -1 1 6
-10 17 -14 15 -26 -10z"/>
<path d="M1380 2879 c0 -5 5 -7 10 -4 6 3 10 8 10 11 0 2 -4 4 -10 4 -5 0 -10
-5 -10 -11z"/>
<path d="M1170 2267 c0 -2 15 -16 33 -33 l32 -29 -29 33 c-28 30 -36 37 -36
29z"/>
<path d="M970 1619 c0 -5 5 -7 10 -4 6 3 10 8 10 11 0 2 -4 4 -10 4 -5 0 -10
-5 -10 -11z"/>
</g>
</svg>
