<svg version="1.1" xmlns="http://www.w3.org/2000/svg" xmlns:xlink="http://www.w3.org/1999/xlink" width="500.000000pt" height="500.000000pt" viewBox="0,0,256,256"><g fill="#4600c0" fill-rule="nonzero" stroke="none" stroke-width="1" stroke-linecap="butt" stroke-linejoin="miter" stroke-miterlimit="10" stroke-dasharray="" stroke-dashoffset="0" font-family="none" font-weight="none" font-size="none" text-anchor="none" style="mix-blend-mode: normal"><g transform="translate(4.60861,4.69298) scale(0.512,0.512)"><g transform="translate(0,500) scale(0.1,-0.1)"><path d="M2855,4483c-3,-10 -9,-64 -12,-121l-6,-103l-57,-29c-81,-41 -120,-76 -120,-109c0,-42 24,-66 97,-96c37,-16 76,-37 85,-47c9,-11 25,-55 35,-99c14,-61 22,-79 35,-79c21,0 32,-16 17,-25c-6,-5 -2,-13 12,-23c25,-18 29,-14 118,108l47,65l107,-3l107,-4l10,27c20,54 2,121 -51,187l-22,27l20,43c12,24 28,65 37,92c15,44 15,51 1,72c-20,30 -59,31 -149,3l-67,-20l-62,57c-34,31 -75,65 -92,75c-38,24 -81,25 -90,2zM3035,4298l30,-27l80,24c44,14 86,24 94,23c9,-2 1,-25 -28,-82c-23,-44 -41,-84 -41,-90c0,-6 23,-40 50,-75c28,-35 50,-67 50,-73c0,-8 -58,-4 -146,12l-41,7l-61,-75c-61,-73 -62,-74 -72,-48c-5,14 -15,55 -21,90l-12,64l-85,33c-46,19 -84,39 -83,44c0,6 37,30 81,53l80,44v82c0,46 3,86 7,90c4,3 25,-11 47,-31c23,-21 55,-50 71,-65z"></path><path d="M2038,4217c-155,-53 -266,-170 -312,-329l-17,-56l-67,34c-37,18 -94,40 -127,49c-299,77 -586,-153 -587,-470c0,-85 26,-184 63,-236c10,-15 19,-29 19,-32c0,-7 -97,-47 -115,-47c-9,0 -42,21 -73,46c-66,54 -114,79 -135,71c-21,-8 -37,-84 -37,-177v-81l-75,-71c-63,-60 -75,-76 -75,-103c0,-34 11,-49 45,-58c11,-3 52,-15 90,-26l71,-21l32,-79c36,-87 50,-103 88,-103c32,0 48,15 99,100l42,67l94,8c52,4 105,9 118,10c21,2 27,-8 58,-93c19,-52 50,-144 69,-205c19,-60 39,-118 44,-127c6,-10 10,-25 10,-34c0,-9 6,-22 14,-28c13,-10 106,-244 106,-265c0,-5 -30,-20 -67,-34c-38,-14 -113,-44 -168,-67c-204,-84 -208,-86 -186,-146c10,-29 10,-37 -3,-49c-8,-8 -21,-15 -30,-15c-25,0 -29,-20 -4,-21c60,-2 94,-26 85,-61c-3,-11 0,-15 9,-11c8,3 14,-1 14,-10c0,-9 -29,-25 -77,-42c-43,-15 -83,-32 -90,-37c-7,-6 -16,-7 -22,-4c-5,3 -11,0 -13,-7c-10,-26 4,-37 47,-37c49,0 63,-13 43,-37c-15,-19 -22,-21 85,22c37,15 71,25 74,21c11,-10 0,-16 -148,-75c-137,-56 -177,-81 -128,-81c12,0 51,10 86,21c52,18 68,20 89,10c19,-8 24,-16 19,-31c-8,-24 -5,-24 43,-4c78,33 82,34 82,20c0,-8 -43,-31 -102,-55c-145,-58 -140,-53 -95,-99c20,-21 34,-41 31,-45c-16,-16 21,-5 107,33c97,42 109,45 109,31c0,-5 -55,-30 -122,-57c-68,-26 -125,-50 -128,-51c-2,-2 0,-12 6,-21c8,-12 22,-16 52,-13c42,3 97,-22 70,-32c-7,-2 -10,-7 -7,-11c3,-3 32,5 65,18c85,34 104,39 104,27c0,-6 -6,-11 -13,-11c-7,0 -48,-14 -91,-30c-44,-17 -84,-29 -90,-27c-19,7 -86,-35 -86,-54c0,-29 15,-30 81,-2c95,39 184,61 203,51c24,-14 19,-47 -9,-60c-16,-7 -21,-14 -14,-18c6,-4 -7,-13 -32,-21c-42,-14 -70,-41 -56,-56c5,-4 36,3 70,15c83,29 113,29 130,-3c16,-31 102,-103 132,-111c14,-3 73,15 161,49c267,106 330,129 478,178c83,27 161,49 174,49c13,0 56,11 95,24c40,13 99,31 132,40c33,10 75,24 93,32c29,14 77,32 229,88c18,7 36,15 39,19c4,4 13,7 20,7c12,0 159,60 269,110c45,20 352,143 461,184c64,24 72,30 78,58c9,46 7,86 -5,106c-15,23 0,92 21,102c8,4 53,22 100,41c150,58 294,121 321,140c32,22 46,79 29,118c-6,14 -24,34 -41,43c-18,11 -27,22 -23,29c3,6 40,26 80,45c67,30 86,49 67,67c-3,4 -11,3 -17,-2c-22,-18 -480,-201 -503,-201c-2,0 -3,4 -3,8c0,5 44,26 98,47c339,132 393,155 386,166c-3,5 3,25 12,45c23,49 10,89 -29,88c-16,-1 -27,4 -27,12c0,7 -8,17 -17,23c-17,9 -17,10 0,29c10,10 35,27 57,37c36,16 55,45 30,45c-5,0 -74,-27 -152,-61c-78,-33 -163,-69 -188,-78c-25,-10 -69,-28 -97,-39c-42,-17 -53,-19 -53,-8c0,8 13,18 28,24c101,35 370,157 360,163c-11,7 -14,22 -17,80c-1,8 -11,26 -23,39c-20,21 -20,25 -7,49c11,19 34,33 88,51c41,14 76,30 78,36c6,18 -26,83 -47,94c-15,8 -33,7 -72,-5c-65,-19 -65,-19 -71,4c-3,15 -11,18 -28,14c-18,-3 -21,-2 -10,5c12,9 12,13 2,26c-8,9 -22,16 -32,16c-23,0 -157,-48 -186,-67c-26,-17 -43,-10 -43,19c0,12 -27,100 -59,197c-33,97 -71,216 -86,265c-15,49 -48,139 -74,200c-26,61 -72,176 -101,256c-29,80 -58,151 -64,157c-15,17 -66,2 -136,-39c-36,-22 -82,-66 -138,-133c-46,-55 -126,-149 -179,-208c-100,-114 -100,-114 -290,-197l-42,-19l-17,51c-9,27 -27,59 -39,70l-24,20l30,58c16,32 29,63 29,69c0,6 9,28 20,49c12,21 16,38 10,40c-5,2 -10,34 -10,70c0,127 -43,232 -128,317c-131,130 -328,178 -494,122zM2345,4112c118,-56 194,-151 208,-264c5,-38 4,-48 -8,-48c-8,0 -19,15 -24,33c-9,30 -9,28 -10,-23c-1,-60 -27,-115 -58,-123c-39,-11 -120,-21 -151,-18c-17,1 -62,-7 -98,-19c-59,-20 -68,-26 -84,-62c-21,-47 -17,-68 17,-100c44,-41 170,-25 213,27c8,10 17,38 20,64c6,42 7,44 14,19c28,-96 -96,-180 -214,-145c-36,10 -49,21 -70,57c-26,44 -27,45 -89,51c-41,4 -68,12 -79,24c-16,17 -16,17 3,10c11,-5 37,-10 57,-13c30,-3 42,1 62,22c32,31 33,67 3,155c-19,55 -27,67 -62,85c-22,11 -43,25 -46,30c-4,5 -12,5 -19,1c-9,-6 -9,-9 1,-16c11,-7 10,-9 -3,-9c-10,0 -24,-12 -32,-27c-25,-51 -28,-90 -11,-150c9,-32 17,-60 17,-63c1,-3 12,-22 25,-44c43,-68 86,-97 208,-142c79,-29 51,-43 -42,-20c-119,29 -201,92 -248,191c-74,157 -50,316 65,435c49,50 123,93 187,110c69,17 177,5 248,-28zM1498,3825c109,-33 189,-97 233,-190c29,-60 37,-105 20,-105c-5,0 -13,10 -18,23c-5,16 -9,2 -13,-51c-8,-93 -33,-123 -104,-124c-25,-1 -46,-4 -46,-8c0,-12 26,-30 33,-24c11,11 19,-45 12,-83c-14,-78 -77,-124 -171,-125c-53,-1 -104,20 -104,43c0,5 10,3 22,-5c28,-20 117,-21 163,-2c64,27 93,110 56,157c-29,38 -80,45 -128,19c-21,-11 -45,-20 -55,-20c-19,0 -58,-45 -58,-67c0,-12 -2,-12 -15,1c-14,14 -18,13 -35,-4c-28,-28 -118,-28 -148,0c-12,12 -22,26 -22,32c0,6 7,4 18,-5c32,-29 72,-39 109,-26c61,20 68,64 26,171c-29,74 -63,104 -108,96c-13,-3 -22,0 -22,9c0,7 3,13 7,13c9,0 10,27 3,64c-5,28 -6,29 -19,11c-8,-10 -12,-28 -9,-39c3,-12 2,-15 -1,-8c-3,6 -10,10 -15,6c-14,-8 -11,-24 6,-24c8,0 15,-7 15,-15c0,-8 -5,-15 -11,-15c-6,0 -9,-7 -6,-14c3,-8 -1,-29 -10,-47c-17,-34 -13,-123 7,-143c14,-14 13,-29 -1,-20c-19,12 32,-74 60,-100c37,-34 138,-83 207,-100l59,-14l-67,-1c-177,-2 -318,120 -348,303c-11,66 5,168 36,228c83,164 275,252 442,203zM3331,3699c16,-46 40,-115 53,-154c13,-38 37,-105 55,-148c38,-94 38,-101 6,-53c-14,20 -25,42 -25,48c0,6 -3,8 -7,5c-7,-8 -44,54 -100,166c-18,37 -37,67 -41,66c-4,0 -55,-60 -113,-133c-102,-127 -106,-134 -93,-158c7,-13 36,-96 64,-184c74,-232 78,-242 103,-247c12,-2 4,-5 -18,-6l-40,-1l-94,243c-52,133 -97,247 -101,252c-4,6 37,62 92,125c54,63 127,149 161,191c34,42 63,76 65,74c2,-2 17,-41 33,-86zM2370,3645c7,-8 8,-15 2,-15c-5,0 -15,7 -22,15c-7,8 -8,15 -2,15c5,0 15,-7 22,-15zM3514,3489c38,-41 52,-69 66,-127c8,-31 7,-33 -17,-30c-23,3 -31,16 -64,98c-44,109 -42,100 -30,100c5,0 25,-18 45,-41zM2547,3348c44,-110 94,-269 87,-280c-4,-7 -3,-8 4,-4c17,10 15,-6 -4,-33c-18,-26 -9,-42 -106,191c-23,54 -45,95 -49,92c-5,-3 -2,-12 6,-20c19,-19 20,-54 1,-54c-8,0 -18,-10 -22,-22c-3,-12 -15,-35 -24,-51l-18,-30l2,52c2,32 -1,51 -8,52c-6,0 -19,2 -28,4c-11,2 -20,-8 -28,-29c-7,-17 -20,-51 -30,-76c-11,-26 -15,-49 -10,-55c6,-7 2,-11 -11,-11c-10,0 -19,1 -19,2c0,7 54,142 66,165c14,27 13,29 -6,29c-12,0 -31,-10 -43,-23c-13,-12 -32,-21 -42,-20c-16,1 -17,1 -2,-3c23,-7 22,-16 -9,-85c-20,-43 -30,-56 -43,-52c-12,4 -13,3 -3,-5c11,-8 6,-28 -28,-104c-39,-87 -44,-94 -71,-94c-27,0 -28,1 -24,45c4,52 87,266 103,266c6,0 13,3 16,6c8,8 -20,5 -56,-5c-18,-5 -33,-21 -46,-49c-24,-52 -93,-206 -120,-269c-12,-27 -23,-48 -26,-48c-3,0 -3,7 0,15c5,11 2,13 -10,9c-28,-11 -17,6 12,18c24,10 25,12 7,16c-31,6 -34,15 -12,37c11,11 17,14 13,8c-5,-9 -2,-11 9,-7c14,6 14,8 -2,20c-10,8 -13,13 -6,14c7,0 10,7 6,16c-5,13 -7,13 -14,2c-7,-10 -9,-10 -9,2c0,8 -9,-3 -21,-24c-11,-21 -18,-45 -15,-53c3,-8 2,-12 -3,-9c-5,3 -14,-8 -21,-24c-7,-17 -14,-29 -16,-27c-2,2 23,66 56,141c34,76 59,140 56,143c-7,8 -67,-27 -73,-42c-3,-8 -8,-13 -12,-11c-3,2 -15,-1 -26,-5c-18,-8 -18,-9 3,-5c16,3 22,0 19,-7c-34,-81 -92,-203 -99,-208c-5,-3 -9,-9 -8,-13c1,-4 -1,-12 -3,-19c-2,-6 -9,4 -14,23c-5,19 -6,37 -2,40c10,7 6,59 -3,53c-5,-2 -8,1 -8,7c0,6 -5,8 -11,4c-8,-4 -9,0 -4,15c9,28 -3,27 -94,-9c-70,-28 -99,-31 -85,-9c3,5 9,7 14,4c4,-3 10,2 13,9c5,12 1,13 -23,5c-21,-8 -27,-15 -23,-27c6,-14 4,-15 -9,-4c-13,10 -23,9 -59,-7c-24,-11 -41,-20 -36,-22c21,-5 28,-7 40,-8c20,-2 -13,-20 -61,-33c-45,-11 -45,-12 -27,-63c6,-18 6,-19 -5,-2c-9,14 -15,16 -26,6c-10,-8 -11,-15 -4,-24c6,-7 10,-17 8,-21c-1,-5 3,-19 10,-31c7,-13 9,-23 5,-23c-4,0 -2,-4 4,-8c11,-7 19,-32 22,-65c1,-5 6,-5 13,-1c7,4 8,3 4,-5c-8,-12 23,-113 35,-119c4,-2 5,-11 2,-22c-3,-10 4,-36 15,-57c20,-36 43,-105 57,-167c3,-15 26,-71 52,-123c25,-52 44,-96 42,-97c-2,-2 -17,-10 -34,-19l-30,-15l-26,71c-15,40 -65,178 -112,307c-93,258 -156,425 -180,482l-16,37l157,61c86,34 207,81 267,104c96,37 290,113 745,290c63,25 118,45 121,45c3,1 15,-23 26,-51zM2920,3314c16,-40 13,-64 -6,-57c-21,8 -20,1 30,-166c20,-68 35,-131 34,-140c-3,-16 -148,332 -148,356c0,11 41,31 68,32c7,1 17,-11 22,-25zM2793,3178c31,-90 33,-103 20,-116c-9,-10 -13,-25 -9,-41c11,-46 19,-106 13,-101c-5,5 -111,271 -121,307c-6,17 -1,25 21,37c15,8 31,15 34,16c4,0 22,-46 42,-102zM2489,3121c-12,-29 -23,-50 -25,-48c-3,2 5,27 17,56c12,28 24,50 26,47c2,-2 -6,-27 -18,-55zM807,3084l62,-53l85,35c47,19 90,34 95,34c5,0 -4,-41 -21,-91l-30,-91l61,-62c33,-34 61,-65 61,-69c0,-4 -24,-7 -52,-8c-29,0 -73,-4 -97,-7c-42,-7 -47,-11 -91,-82c-26,-41 -51,-75 -55,-75c-5,0 -20,36 -35,80l-26,80l-95,24c-52,13 -96,26 -98,27c-5,4 26,31 101,86l58,42l-7,100c-7,114 -13,111 84,30zM2398,3080c-19,-46 -46,-61 -35,-19c3,11 1,19 -5,19c-5,0 -6,5 -3,11c4,6 13,8 19,6c7,-3 18,4 24,14c21,34 21,20 0,-31zM2411,2925c15,-8 48,-15 74,-15c25,0 45,-2 45,-5c0,-2 -21,-24 -46,-47l-46,-43l5,-65l5,-65l-22,29c-54,74 -58,77 -125,83l-63,6l47,40l47,41l-6,65l-6,66l31,-38c18,-21 44,-44 60,-52zM2241,2953c-12,-20 -14,-14 -5,12c4,9 9,14 11,11c3,-2 0,-13 -6,-23zM2061,2893c-11,-21 -20,-35 -21,-31c0,12 33,78 38,74c2,-2 -6,-21 -17,-43zM1526,2921c-4,-5 -1,-11 6,-13c7,-3 2,-7 -10,-10c-12,-4 -20,-2 -16,3c3,5 -1,9 -8,9c-9,0 -9,3 2,10c19,12 33,13 26,1zM2211,2883c-12,-20 -14,-14 -5,12c4,9 9,14 11,11c3,-2 0,-13 -6,-23zM1718,2873c-14,-33 -38,-71 -38,-60c0,11 39,87 45,87c3,0 -1,-12 -7,-27zM2124,2855c-4,-8 -8,-15 -10,-15c-2,0 -4,7 -4,15c0,8 4,15 10,15c5,0 7,-7 4,-15zM1617,2810c-21,-49 -22,-50 -37,-30c-17,23 -39,21 -99,-10l-42,-21l11,21c7,12 35,32 63,44c29,13 63,28 77,34c46,20 49,14 27,-38zM4021,2837c-6,-8 -46,-31 -88,-52c-43,-21 -81,-43 -85,-49c-4,-6 -8,-8 -8,-4c0,3 -3,13 -6,22c-6,16 13,27 131,72c72,28 70,27 56,11zM1938,2796c-10,-7 -15,-15 -12,-18c2,-3 -1,-17 -7,-32c-9,-18 -15,-23 -20,-14c-4,7 0,17 9,25c9,7 12,13 5,13c-6,0 -9,9 -6,21c4,13 11,18 20,14c11,-4 13,-1 9,12c-6,15 -5,16 6,5c11,-11 10,-16 -4,-26zM2085,2780c-14,-27 -28,-50 -31,-50c-3,0 -3,4 1,9c3,5 1,12 -5,16c-5,3 -10,13 -10,21c0,8 5,12 10,9c6,-4 20,5 33,19c12,14 23,26 25,26c1,0 -9,-22 -23,-50zM4280,2774c0,-17 -21,-29 -29,-16c-4,7 -19,6 -46,-4c-42,-15 -76,-11 -58,7c5,5 32,18 59,28c50,19 74,15 74,-15zM3460,2780c0,-5 -8,-18 -18,-28c-11,-11 -24,-49 -31,-91c-13,-70 -14,-73 -50,-87c-114,-46 -136,-60 -69,-45c31,7 71,-1 58,-12c-14,-12 -75,-37 -90,-37c-10,0 -40,32 -70,74c-60,84 -56,83 -172,44c-32,-11 -62,-17 -66,-14c-17,10 -36,96 -24,108c6,6 64,30 129,53c117,42 119,43 261,44c89,1 142,-3 142,-9zM3736,2743c-9,-60 -25,-245 -36,-413c-20,-300 -41,-585 -45,-605c-3,-14 -25,-28 -72,-47c-37,-15 -73,-29 -78,-30c-17,-5 -210,216 -471,541c-54,68 -118,147 -141,176l-42,52l115,43c63,23 116,41 118,39c16,-19 185,-242 233,-309c34,-47 82,-107 106,-134l44,-50l7,154c9,178 41,519 51,528c7,8 195,90 208,91c5,1 6,-16 3,-36zM1811,2696c-16,-36 -32,-66 -35,-66c-3,0 9,32 26,70c17,39 33,68 35,66c2,-2 -9,-34 -26,-70zM1985,2731c-21,-43 -29,-39 -8,4c9,19 18,33 21,31c2,-2 -4,-18 -13,-35zM4067,2713c2,-6 -19,-19 -47,-28c-30,-10 -48,-21 -44,-27c5,-7 2,-8 -5,-3c-14,8 -91,-23 -91,-37c0,-5 -5,-6 -11,-2c-6,3 -15,0 -20,-7c-6,-11 -10,-9 -15,6c-4,10 -3,20 2,22c5,2 54,23 109,47c102,45 116,48 122,29zM1591,2597c-10,-9 -11,-8 -5,6c3,10 9,15 12,12c3,-3 0,-11 -7,-18zM4080,2575c0,-8 -6,-15 -13,-15c-7,0 -66,-22 -132,-50c-66,-27 -121,-50 -122,-50c-2,0 -3,6 -3,13c0,12 226,114 258,116c6,1 12,-6 12,-14zM3380,2410c-8,-16 -17,-19 -38,-14c-15,4 -29,8 -31,10c-6,5 41,23 62,23c15,1 16,-2 7,-19zM2870,2095c46,-132 113,-325 151,-429c38,-104 66,-192 64,-196c-2,-4 -39,-20 -82,-35c-43,-15 -83,-31 -89,-36c-11,-9 -30,34 -117,266c-18,50 -47,135 -63,190l-29,99l-12,-99c-12,-102 -78,-496 -91,-549l-8,-30l-94,90c-126,119 -233,217 -308,282l-61,52l19,-52c10,-29 35,-96 55,-148c20,-52 56,-152 80,-222l44,-127l-81,-30c-130,-50 -120,-53 -146,36c-51,169 -221,640 -299,831c-3,6 0,12 7,12c7,0 57,18 112,40c114,46 94,51 214,-57c184,-166 307,-273 310,-270c2,2 19,84 38,183c20,98 46,229 59,289l23,110l100,40c97,40 99,40 110,20c7,-11 49,-128 94,-260zM4231,2328c10,-18 9,-20 -4,-15c-9,3 -107,-30 -218,-73c-111,-44 -204,-80 -206,-80c-3,0 -3,5 -1,11c3,8 391,175 415,179c1,0 7,-10 14,-22zM2420,2147c0,-8 -6,-14 -12,-14c-34,-1 -98,-25 -98,-37c0,-20 -43,-29 -52,-11c-5,8 -18,12 -34,9c-13,-2 -33,0 -42,5c-19,11 -19,11 53,16c28,1 73,12 100,23c60,24 85,27 85,9zM2250,2074c0,-2 -7,-4 -15,-4c-8,0 -15,4 -15,10c0,5 7,7 15,4c8,-4 15,-8 15,-10zM2400,2020c0,-16 -75,-49 -90,-40c-9,6 0,14 31,28c52,24 59,25 59,12zM4168,2003c2,-8 -5,-13 -15,-13c-11,0 -99,-31 -196,-69c-97,-38 -177,-65 -177,-61c0,5 37,23 82,42c45,18 125,52 177,75c98,43 121,47 129,26zM1743,1868c2,-9 -29,-25 -87,-46c-127,-47 -145,-52 -151,-43c-5,9 189,98 217,100c9,1 18,-5 21,-11zM1483,1520c47,-135 99,-282 117,-328c38,-98 17,-97 216,-18c87,35 137,50 139,42c2,-6 18,-51 35,-100c17,-49 29,-90 28,-91c-2,-1 -70,-28 -153,-60c-82,-32 -195,-75 -250,-97c-90,-34 -101,-37 -112,-22c-12,16 -80,197 -228,609c-48,132 -91,247 -96,256c-7,14 6,22 79,48c48,17 94,36 102,41c21,13 24,4 123,-280zM1778,1748c-6,-18 -221,-99 -232,-88c-6,6 1,13 20,20c16,6 65,26 109,44c87,37 109,42 103,24zM3336,1648c4,-7 4,-10 -1,-6c-4,4 -35,-4 -69,-16c-33,-13 -70,-27 -81,-32c-12,-4 -17,-3 -12,2c8,8 132,61 149,63c4,1 10,-5 14,-11zM1830,1620c0,-4 -12,-11 -27,-15c-16,-3 -68,-22 -116,-42c-49,-19 -91,-32 -94,-29c-9,9 -5,11 112,59c103,43 125,47 125,27zM1870,1501c0,-9 -200,-91 -222,-91c-23,0 7,16 105,56c115,47 117,48 117,35zM1905,1371c-12,-11 -193,-81 -209,-81c-12,1 75,39 159,71c58,21 62,22 50,10z"></path><path d="M2063,4053c-65,-42 -79,-90 -42,-149c25,-42 59,-51 107,-31c20,8 51,20 69,27c32,12 63,59 63,95c0,10 -16,33 -36,51c-46,44 -101,47 -161,7z"></path><path d="M2297,4029c40,-41 68,-45 70,-10c1,14 -10,24 -38,35c-66,27 -74,20 -32,-25z"></path><path d="M2403,4004c15,-17 24,-33 20,-37c-3,-4 0,-7 7,-7c7,0 11,-2 8,-5c-3,-3 -18,-1 -34,5c-40,16 -71,5 -94,-33c-25,-41 -25,-82 1,-152c33,-89 94,-112 150,-56c26,26 29,36 29,90c0,33 -4,71 -10,86c-7,19 -7,24 1,19c8,-5 8,-1 0,12c-15,26 -31,44 -71,79l-35,30z"></path><path d="M2138,3844c-15,-8 -32,-23 -38,-34c-32,-61 16,-140 85,-140c51,0 95,44 95,95c0,27 -8,44 -29,66c-33,33 -70,37 -113,13zM2201,3810c10,-6 19,-15 19,-20c0,-13 -61,-50 -72,-44c-15,9 -8,53 10,63c21,13 20,13 43,1z"></path><path d="M1297,3756c-47,-17 -72,-39 -87,-77c-16,-37 -7,-69 27,-103c34,-35 51,-33 181,15c32,12 58,72 46,106c-20,57 -98,85 -167,59z"></path><path d="M1504,3745c1,-8 7,-20 14,-27c8,-8 9,-5 5,11c-6,25 -22,38 -19,16z"></path><path d="M1536,3700c4,-37 1,-56 -12,-76c-25,-37 -22,-108 6,-169c13,-27 23,-53 22,-56c-3,-17 98,-12 119,7c46,41 47,161 2,215c-14,16 -21,29 -16,29c14,0 -86,87 -107,93c-18,5 -19,1 -14,-43zM1625,3665c23,-12 24,-13 5,-8c-14,4 -37,7 -52,7c-15,-1 -25,3 -22,7c8,13 35,10 69,-6z"></path><path d="M1331,3524c-43,-36 -44,-93 -2,-135c25,-24 38,-29 79,-29c60,0 73,13 80,78c4,41 0,52 -23,80c-35,42 -89,44 -134,6zM1428,3490c2,-15 -45,-50 -67,-50c-15,0 -14,43 1,58c17,17 62,11 66,-8z"></path><path d="M2390,3270c-8,-5 -12,-11 -10,-14c3,-2 14,2 24,10c22,15 10,19 -14,4z"></path><path d="M2065,3150c-19,-8 -19,-9 3,-9c12,-1 22,4 22,9c0,6 -1,10 -2,9c-2,0 -12,-4 -23,-9z"></path><path d="M2020,3130c-8,-5 -12,-12 -9,-15c4,-3 12,1 19,10c14,17 11,19 -10,5z"></path><path d="M1780,3040c-34,-14 -41,-20 -28,-25c13,-5 16,-14 11,-36c-3,-17 -1,-29 5,-29c6,0 9,10 7,22c-3,16 -2,19 6,11c18,-18 39,-3 39,28c0,19 5,29 15,29c8,0 15,5 15,10c0,14 -18,12 -70,-10z"></path><path d="M2120,3017c-8,-18 -15,-34 -15,-37c0,-3 -3,-9 -6,-15c-4,-5 -3,-19 1,-30c6,-16 8,-13 15,15c5,19 9,40 10,45c1,6 5,18 10,28c4,10 6,20 3,22c-2,2 -10,-10 -18,-28z"></path><path d="M1638,2983c7,-3 16,-2 19,1c4,3 -2,6 -13,5c-11,0 -14,-3 -6,-6z"></path><path d="M2120,2918c-10,-21 -10,-21 3,-6c8,10 18,14 22,10c5,-4 5,-1 1,6c-10,17 -14,15 -26,-10z"></path><path d="M1380,2879c0,-5 5,-7 10,-4c6,3 10,8 10,11c0,2 -4,4 -10,4c-5,0 -10,-5 -10,-11z"></path><path d="M1170,2267c0,-2 15,-16 33,-33l32,-29l-29,33c-28,30 -36,37 -36,29z"></path><path d="M970,1619c0,-5 5,-7 10,-4c6,3 10,8 10,11c0,2 -4,4 -10,4c-5,0 -10,-5 -10,-11z"></path></g></g></g></svg>